# xmcd CD database file
#
# Track frame offsets:
#	187
#	30920
#	54937
#	88687
#	111365
#	124427
#	148230
#	163050
#
# Disc length: 2389 seconds
#
# Revision: 0
# Processed by: cddbd v1.5PL3 Copyright (c) Steve Scherf et al.
# Submitted via: CDex 1.51
#
DISCID=6c095308
DTITLE=Curtis Mayfield - Back to the World
DYEAR=1973
DGENRE=R&B
TTITLE0=Back to The World
TTITLE1=Future Shock
TTITLE2=Right On For the Darkness
TTITLE3=Future Song (Love A Good Woman, Love A Good Man)
TTITLE4=If I Were Only a Child Again
TTITLE5=Can't Say Nothin'
TTITLE6=Keep on Trippin'
TTITLE7=Can't Say Nothin' (Single Edit)
EXTD=YEAR: 1973
EXTT0=
EXTT1=
EXTT2=
EXTT3=
EXTT4=
EXTT5=
EXTT6=
EXTT7=
PLAYORDER=
